<svg width="167" height="280" viewBox="0 0 167 280" fill="none" xmlns="http://www.w3.org/2000/svg">
<path fill-rule="evenodd" clip-rule="evenodd" d="M-1 -10H167V181H-1V-10Z" fill="#4AF6CD"/>
<path d="M59.22 145.36C59.22 142.2 59.68 139.42 60.6 137.02C61.52 134.58 62.9 132.4 64.74 130.48L70.62 135.46C68.34 138.34 67.2 141.36 67.2 144.52C67.2 146.16 67.52 147.42 68.16 148.3C68.76 149.14 69.62 149.56 70.74 149.56C71.54 149.56 72.2 149.34 72.72 148.9C73.24 148.46 73.74 147.72 74.22 146.68C74.7 145.64 75.3 144 76.02 141.76C77.38 137.48 79.1 134.36 81.18 132.4C83.22 130.4 86.06 129.4 89.7 129.4C92.34 129.4 94.68 130.08 96.72 131.44C98.72 132.8 100.28 134.78 101.4 137.38C102.52 139.94 103.08 142.96 103.08 146.44C103.08 153.08 101.06 158.5 97.02 162.7L90.96 157.24C93.68 153.92 95.04 150.46 95.04 146.86C95.04 144.98 94.64 143.52 93.84 142.48C93 141.44 91.9 140.92 90.54 140.92C89.58 140.92 88.8 141.12 88.2 141.52C87.56 141.92 87 142.64 86.52 143.68C86 144.68 85.44 146.16 84.84 148.12C83.36 152.84 81.58 156.16 79.5 158.08C77.42 160 74.8 160.96 71.64 160.96C69.16 160.96 66.98 160.3 65.1 158.98C63.22 157.62 61.78 155.76 60.78 153.4C59.74 151 59.22 148.32 59.22 145.36ZM88.02 91.9553C90.9 91.9553 93.48 92.5953 95.76 93.8753C98.04 95.1153 99.84 96.9953 101.16 99.5153C102.44 102.035 103.08 105.115 103.08 108.755C103.08 114.275 101.74 118.455 99.06 121.295C96.34 124.135 92.66 125.555 88.02 125.555H60.3V114.455H87.66C90.18 114.455 92.04 114.015 93.24 113.135C94.4 112.215 94.98 110.755 94.98 108.755C94.98 106.755 94.38 105.315 93.18 104.435C91.98 103.555 90.14 103.115 87.66 103.115H60.3V91.9553H88.02ZM86.64 71.9477V75.0077H102V86.1077H60.3V71.6477C60.3 65.7677 61.36 61.3877 63.48 58.5077C65.6 55.5877 68.86 54.1277 73.26 54.1277C75.9 54.1277 78.1 54.7477 79.86 55.9877C81.62 57.1877 83.2 59.1277 84.6 61.8077L102 51.4277V63.7877L86.64 71.9477ZM79.08 75.0077V71.2877C79.08 67.4477 77.14 65.5277 73.26 65.5277C71.46 65.5277 70.14 66.0677 69.3 67.1477C68.46 68.1877 68.04 69.7677 68.04 71.8877V75.0077H79.08ZM102 48.9006H60.3V23.2806L68.16 24.4206V37.8006H78.18V26.0406H86.04V37.8006H102V48.9006Z" fill="white"/>
<path d="M59.22 257.92C59.22 252.36 60.98 247.58 64.5 243.58L70.2 249.04C69.12 250.56 68.34 251.94 67.86 253.18C67.34 254.38 67.08 255.76 67.08 257.32C67.08 260.32 68.24 262.68 70.56 264.4C72.88 266.08 76.42 266.92 81.18 266.92C84.66 266.92 87.42 266.64 89.46 266.08C91.46 265.52 92.9 264.68 93.78 263.56C94.66 262.4 95.1 260.92 95.1 259.12C95.1 257.32 94.72 255.68 93.96 254.2H85.38V258.94L77.76 260.02V243.46H98.52C99.96 245.62 101.08 248.06 101.88 250.78C102.68 253.5 103.08 256.18 103.08 258.82C103.08 271.86 95.76 278.38 81.12 278.38C76.56 278.38 72.64 277.5 69.36 275.74C66.04 273.94 63.52 271.5 61.8 268.42C60.08 265.34 59.22 261.84 59.22 257.92ZM59.22 220.335C59.22 214.295 61.14 209.595 64.98 206.235C68.82 202.875 74.2 201.195 81.12 201.195C85.64 201.195 89.56 201.955 92.88 203.475C96.16 204.955 98.68 207.135 100.44 210.015C102.2 212.895 103.08 216.335 103.08 220.335C103.08 226.375 101.16 231.075 97.32 234.435C93.48 237.755 88.08 239.415 81.12 239.415C76.6 239.415 72.7 238.675 69.42 237.195C66.14 235.675 63.62 233.495 61.86 230.655C60.1 227.775 59.22 224.335 59.22 220.335ZM67.2 220.335C67.2 222.935 68.28 224.855 70.44 226.095C72.6 227.295 76.16 227.895 81.12 227.895C86.08 227.895 89.66 227.275 91.86 226.035C94.02 224.795 95.1 222.895 95.1 220.335C95.1 217.695 94.02 215.775 91.86 214.575C89.7 213.375 86.12 212.775 81.12 212.775C76.16 212.775 72.6 213.375 70.44 214.575C68.28 215.775 67.2 217.695 67.2 220.335Z" fill="white"/>
<rect x="82" y="191" width="20" height="1" transform="rotate(-90 82 191)" fill="white"/>
</svg>
